<svg width="109" height="109" viewBox="0 0 109 61" fill="none" xmlns="http://www.w3.org/2000/svg">
<path d="M33.002 0.794922C35.9609 0.794922 38.6416 1.23438 41.0439 2.11328C43.4463 2.99219 45.4824 4.19336 47.1523 5.7168C48.8516 7.24023 50.1553 9.02734 51.0635 11.0781C51.9717 13.0996 52.4258 15.2529 52.4258 17.5381V44.2568C52.4258 46.542 51.9717 48.71 51.0635 50.7607C50.1553 52.7822 48.8516 54.5547 47.1523 56.0781C45.4824 57.6016 43.4463 58.8027 41.0439 59.6816C38.6416 60.5605 35.9609 61 33.002 61H19.4668C16.5078 61 13.8271 60.5605 11.4248 59.6816C9.02246 58.8027 6.97168 57.6016 5.27246 56.0781C3.60254 54.5547 2.31348 52.7822 1.40527 50.7607C0.49707 48.71 0.0429688 46.542 0.0429688 44.2568V17.5381C0.0429688 15.2529 0.49707 13.0996 1.40527 11.0781C2.31348 9.02734 3.60254 7.24023 5.27246 5.7168C6.97168 4.19336 9.02246 2.99219 11.4248 2.11328C13.8271 1.23438 16.5078 0.794922 19.4668 0.794922H33.002ZM37.0449 41.0928H42.0547L38.583 8.35352L35.8584 5.62891L30.0137 4.75H25.3115L19.4668 5.62891L16.7861 8.35352L13.1826 41.0928H18.4121L19.1152 31.7324L19.5547 27.6895H35.7705L36.21 31.7324L37.0449 41.0928ZM33.9688 10.0674C34.1738 12.4404 34.4082 14.6816 34.6719 16.791C34.9355 18.9004 35.1846 21.127 35.4189 23.4707H19.9502L21.2686 10.0674C22.0889 9.97949 22.792 9.87695 23.3779 9.75977C23.9932 9.64258 24.7109 9.52539 25.5312 9.4082H29.8379L33.9688 10.0674ZM97.8828 4.75H72.4824V9.4082H82.8535V41.0928H87.5557V9.4082H97.8828V4.75ZM89.5332 0.794922C92.4922 0.794922 95.1729 1.23438 97.5752 2.11328C99.9775 2.99219 102.014 4.19336 103.684 5.7168C105.383 7.24023 106.687 9.02734 107.595 11.0781C108.503 13.0996 108.957 15.2529 108.957 17.5381V44.2568C108.957 46.542 108.503 48.71 107.595 50.7607C106.687 52.7822 105.383 54.5547 103.684 56.0781C102.014 57.6016 99.9775 58.8027 97.5752 59.6816C95.1729 60.5605 92.4922 61 89.5332 61H75.998C73.0391 61 70.3584 60.5605 67.9561 59.6816C65.5537 58.8027 63.5029 57.6016 61.8037 56.0781C60.1338 54.5547 58.8447 52.7822 57.9365 50.7607C57.0283 48.71 56.5742 46.542 56.5742 44.2568V17.5381C56.5742 15.2529 57.0283 13.0996 57.9365 11.0781C58.8447 9.02734 60.1338 7.24023 61.8037 5.7168C63.5029 4.19336 65.5537 2.99219 67.9561 2.11328C70.3584 1.23438 73.0391 0.794922 75.998 0.794922H89.5332Z" fill="black"/>
</svg>
