<svg width="283" height="283" viewBox="0 0 283 283" fill="none" xmlns="http://www.w3.org/2000/svg">
<path d="M42.4264 113.137C67.6263 87.9372 85.8299 69.7636 101.554 57.7662C117.048 45.9449 128.954 41.066 141.421 41.066C153.889 41.066 165.795 45.9449 181.288 57.7662C197.013 69.7636 215.216 87.9372 240.416 113.137L268.701 141.421L240.416 169.706C215.216 194.906 197.013 213.079 181.288 225.076C165.795 236.898 153.889 241.777 141.421 241.777C128.954 241.777 117.048 236.898 101.554 225.076C85.8299 213.079 67.6263 194.906 42.4264 169.706L14.1421 141.421L42.4264 113.137Z" fill="#DADADA" stroke="#B8B8B8" stroke-width="20"/>
<circle cx="141" cy="141" r="40" fill="black" stroke="#545454" stroke-width="10"/>
<circle cx="128.5" cy="125.5" r="16.5" fill="white" stroke="#545454" stroke-width="10"/>
</svg>
